<svg width="218" height="52" viewBox="0 0 218 52" fill="none" xmlns="http://www.w3.org/2000/svg">
<path d="M37.3437 4.03141C37.3437 5.19999 36.3961 6.14753 35.2275 6.14753C34.0589 6.14753 33.1113 5.19999 33.1113 4.03141C33.1113 2.86283 34.0589 1.91528 35.2275 1.91528C36.3961 1.91528 37.3437 2.86283 37.3437 4.03141Z" fill="#1F8CCA"/>
<path d="M29.2812 2.11431C29.2812 3.28289 28.3336 4.23044 27.165 4.23044C25.9964 4.23044 25.0488 3.28289 25.0488 2.11431C25.0488 0.945734 25.9964 0 27.165 0C28.3336 0 29.2812 0.947546 29.2812 2.11431Z" fill="#1F8CCA"/>
<path d="M21.0498 3.06193C21.0498 4.2305 20.1022 5.17805 18.9336 5.17805C17.765 5.17805 16.8174 4.2305 16.8174 3.06193C16.8174 1.89335 17.765 0.945801 18.9336 0.945801C20.1022 0.947613 21.0498 1.89335 21.0498 3.06193Z" fill="#1F8CCA"/>
<path d="M13.6406 6.76676C13.6406 7.93534 12.693 8.88288 11.5244 8.88288C10.3558 8.88288 9.4082 7.93534 9.4082 6.76676C9.4082 5.59818 10.3558 4.65063 11.5244 4.65063C12.693 4.65245 13.6406 5.59818 13.6406 6.76676Z" fill="#C3E4F7"/>
<path d="M7.957 12.7873C7.957 13.9558 7.00943 14.9034 5.84081 14.9034C4.67219 14.9034 3.72461 13.9558 3.72461 12.7873C3.72461 11.6187 4.67219 10.6711 5.84081 10.6711C7.00943 10.6711 7.957 11.6187 7.957 12.7873Z" fill="#1F8CCA"/>
<path d="M4.69445 20.3859C4.69445 21.5545 3.74687 22.502 2.57825 22.502C1.40963 22.502 0.463867 21.5545 0.463867 20.3859C0.463867 19.2173 1.41144 18.2698 2.57825 18.2698C3.74687 18.2698 4.69445 19.2173 4.69445 20.3859Z" fill="#1F8CCA"/>
<path d="M4.23058 28.6584C4.23058 29.8269 3.283 30.7745 2.11438 30.7745C0.945766 30.7745 0 29.8269 0 28.6584C0 27.4898 0.947578 26.5422 2.1162 26.5422C3.28482 26.5422 4.23058 27.4898 4.23058 28.6584Z" fill="#692880"/>
<path d="M6.63083 36.5937C6.63083 37.7622 5.68325 38.708 4.51463 38.708C3.34602 38.708 2.39844 37.7604 2.39844 36.5937C2.39844 35.4251 3.34602 34.4775 4.51463 34.4775C5.68325 34.4775 6.63083 35.4251 6.63083 36.5937Z" fill="#692880"/>
<path d="M11.5782 43.2248C11.5782 44.3933 10.6307 45.3409 9.46204 45.3409C8.29342 45.3409 7.34766 44.3933 7.34766 43.2248C7.34766 42.0562 8.29523 41.1086 9.46204 41.1086C10.6307 41.1086 11.5782 42.0562 11.5782 43.2248Z" fill="#97227E"/>
<path d="M18.5021 47.7504C18.5021 48.919 17.5545 49.8665 16.3859 49.8665C15.2173 49.8665 14.2715 48.919 14.2715 47.7504C14.2715 46.5818 15.2191 45.6343 16.3859 45.6343C17.5563 45.6343 18.5021 46.5818 18.5021 47.7504Z" fill="#692880"/>
<path d="M24.4697 51.7601C25.6385 51.7601 26.5859 50.8127 26.5859 49.644C26.5859 48.4753 25.6385 47.5278 24.4697 47.5278C23.301 47.5278 22.3535 48.4753 22.3535 49.644C22.3535 50.8127 23.301 51.7601 24.4697 51.7601Z" fill="#692880"/>
<path d="M34.7959 48.6347C34.7959 49.8033 33.8483 50.7508 32.6797 50.7508C31.5111 50.7508 30.5635 49.8033 30.5635 48.6347C30.5635 47.4661 31.5111 46.5186 32.6797 46.5186C33.8483 46.5186 34.7959 47.4661 34.7959 48.6347Z" fill="#692880"/>
<path d="M42.1845 44.8861C42.1845 46.0547 41.237 47.0023 40.0683 47.0023C38.8997 47.0023 37.9521 46.0547 37.9521 44.8861C37.9521 43.7176 38.8997 42.77 40.0683 42.77C41.237 42.7718 42.1845 43.7194 42.1845 44.8861Z" fill="#97227E"/>
<path d="M47.8261 38.8456C47.8261 40.0142 46.8786 40.9617 45.7099 40.9617C44.5413 40.9617 43.5938 40.0142 43.5938 38.8456C43.5938 37.677 44.5413 36.7295 45.7099 36.7295C46.8786 36.7313 47.8261 37.677 47.8261 38.8456Z" fill="#692880"/>
<path d="M51.0683 31.2255C51.0683 32.3941 50.1208 33.3416 48.9521 33.3416C47.7835 33.3416 46.8359 32.3941 46.8359 31.2255C46.8359 30.0569 47.7835 29.1094 48.9521 29.1094C50.1208 29.1094 51.0683 30.0569 51.0683 31.2255Z" fill="#692880"/>
<path d="M51.5294 23.2065C51.5294 24.375 50.5818 25.3226 49.4132 25.3226C48.2446 25.3226 47.2988 24.375 47.2988 23.2065C47.2988 22.0379 48.2464 21.0903 49.4132 21.0903C50.5836 21.0903 51.5294 22.0379 51.5294 23.2065Z" fill="#692880"/>
<path d="M49.172 15.2079C49.172 16.3765 48.2244 17.324 47.0576 17.324C45.889 17.324 44.9414 16.3765 44.9414 15.2079C44.9414 14.0393 45.889 13.0918 47.0576 13.0918C48.2244 13.0918 49.172 14.0393 49.172 15.2079Z" fill="#692880"/>
<path d="M44.2461 8.61846C44.2461 9.78704 43.2985 10.7346 42.1299 10.7346C40.9612 10.7346 40.0137 9.78704 40.0137 8.61846C40.0137 7.44988 40.9612 6.50415 42.1299 6.50415C43.2985 6.50415 44.2461 7.44988 44.2461 8.61846Z" fill="#C3E4F7"/>
<path d="M39.3974 8.3265C39.2126 9.36282 38.2234 10.0531 37.187 9.8683C36.1507 9.6835 35.4604 8.69429 35.6452 7.65797C35.83 6.62165 36.8192 5.93137 37.8556 6.11436C38.8919 6.29915 39.5822 7.29018 39.3974 8.3265Z" fill="#C3E4F7"/>
<path d="M32.5498 5.35568C32.365 6.392 31.3757 7.08228 30.3394 6.89929C29.303 6.71449 28.6127 5.72528 28.7975 4.68895C28.9823 3.65263 29.9716 2.96054 31.0079 3.14534C32.0443 3.33014 32.7346 4.31755 32.5498 5.35568Z" fill="#1F8CCA"/>
<path d="M25.0994 4.89525C24.9146 5.93157 23.9253 6.62185 22.889 6.43886C21.8526 6.25406 21.1605 5.26485 21.3453 4.22852C21.5301 3.1922 22.5193 2.50193 23.5557 2.68491C24.5939 2.86971 25.2842 3.85893 25.0994 4.89525Z" fill="#1F8CCA"/>
<path d="M17.9423 7.01311C17.7575 8.04943 16.7683 8.7397 15.7319 8.55672C14.6956 8.37192 14.0053 7.38089 14.1901 6.34638C14.3749 5.31006 15.3641 4.61978 16.4005 4.80458C17.4368 4.98757 18.1271 5.97678 17.9423 7.01311Z" fill="#1F8CCA"/>
<path d="M11.9505 11.4558C11.7657 12.4922 10.7764 13.1824 9.74005 12.9976C8.70369 12.8146 8.0134 11.8236 8.19639 10.7873C8.38119 9.75098 9.37044 9.0607 10.4068 9.2455C11.445 9.4303 12.1353 10.4195 11.9505 11.4558Z" fill="#C3E4F7"/>
<path d="M7.85769 17.6809C7.67288 18.7172 6.68364 19.4075 5.64728 19.2245C4.61092 19.0397 3.92062 18.0505 4.10361 17.0142C4.28842 15.9778 5.27767 15.2876 6.31403 15.4706C7.35038 15.6554 8.04068 16.6446 7.85769 17.6809Z" fill="#1F8CCA"/>
<path d="M6.14156 24.9459C5.95676 25.9822 4.96751 26.6725 3.93115 26.4877C2.8948 26.3029 2.2045 25.3137 2.3893 24.2774C2.5741 23.241 3.56335 22.5508 4.59971 22.7337C5.63426 22.9204 6.32456 23.9096 6.14156 24.9459Z" fill="#1F8CCA"/>
<path d="M7.01687 32.3651C6.83206 33.4014 5.84282 34.0917 4.80646 33.9069C3.7701 33.7221 3.0798 32.7329 3.26279 31.6965C3.4476 30.6602 4.43685 29.9699 5.47321 30.1529C6.51137 30.3377 7.20167 31.3269 7.01687 32.3651Z" fill="#692880"/>
<path d="M10.3584 39.0269C10.1736 40.0632 9.18431 40.7535 8.14795 40.5687C7.11159 40.3839 6.42129 39.3947 6.6061 38.3583C6.7909 37.322 7.78015 36.6317 8.81651 36.8165C9.85286 36.9995 10.5432 37.9887 10.3584 39.0269Z" fill="#692880"/>
<path d="M15.788 44.1325C15.6032 45.1688 14.614 45.8609 13.5776 45.6761C12.5413 45.4913 11.851 44.5021 12.0358 43.4658C12.2206 42.4294 13.2098 41.7392 14.2462 41.924C15.2807 42.107 15.971 43.0962 15.788 44.1325Z" fill="#97227E"/>
<path d="M22.6591 47.0893C22.4743 48.1257 21.4851 48.8159 20.4487 48.6329C19.4124 48.4482 18.7221 47.4589 18.9069 46.4226C19.0917 45.3863 20.0809 44.696 21.1173 44.879C22.1536 45.0638 22.8439 46.053 22.6591 47.0893Z" fill="#692880"/>
<path d="M30.0999 47.4878C29.9151 48.5241 28.9258 49.2144 27.8895 49.0314C26.8531 48.8466 26.1628 47.8574 26.3458 46.8211C26.5306 45.7847 27.5199 45.0945 28.5562 45.2774C29.5944 45.4622 30.2847 46.4533 30.0999 47.4878Z" fill="#692880"/>
<path d="M37.2454 45.3318C37.0624 46.3681 36.0713 47.0584 35.035 46.8736C33.9986 46.6906 33.3083 45.6996 33.4913 44.665C33.6761 43.6287 34.6654 42.9384 35.7017 43.1214C36.7381 43.3044 37.4302 44.2936 37.2454 45.3318Z" fill="#692880"/>
<path d="M43.2024 40.8621C43.0176 41.8984 42.0284 42.5887 40.992 42.4039C39.9556 42.2209 39.2653 41.2299 39.4483 40.1936C39.6331 39.1573 40.6224 38.4652 41.6588 38.65C42.6951 38.8366 43.3872 39.8258 43.2024 40.8621Z" fill="#97227E"/>
<path d="M47.281 34.6153C47.0962 35.6516 46.107 36.3419 45.0706 36.1571C44.0342 35.9723 43.3421 34.9831 43.5269 33.9468C43.7117 32.9105 44.701 32.2202 45.7392 32.4032C46.7737 32.5898 47.464 33.579 47.281 34.6153Z" fill="#692880"/>
<path d="M48.957 27.5747C48.7722 28.6111 47.7829 29.3013 46.7466 29.1165C45.7102 28.9317 45.0199 27.9425 45.2047 26.9062C45.3895 25.8699 46.3788 25.1796 47.4133 25.3644C48.4497 25.5492 49.1418 26.5384 48.957 27.5747Z" fill="#692880"/>
<path d="M48.1272 20.1087C47.9442 21.145 46.9532 21.8353 45.9168 21.6505C44.8805 21.4657 44.1902 20.4765 44.3731 19.4401C44.558 18.4038 45.549 17.7135 46.5836 17.8983C47.6217 18.0813 48.312 19.0705 48.1272 20.1087Z" fill="#692880"/>
<path d="M44.7991 13.4866C44.6143 14.5229 43.625 15.2132 42.5887 15.0284C41.5523 14.8436 40.862 13.8544 41.045 12.8181C41.2298 11.7817 42.2191 11.0915 43.2572 11.2763C44.2936 11.4592 44.9839 12.4503 44.7991 13.4866Z" fill="#692880"/>
<path d="M40.6064 12.6097C40.2748 13.4993 39.2856 13.9522 38.396 13.6207C37.5064 13.2891 37.0534 12.2999 37.385 11.4104C37.7166 10.5208 38.7058 10.0679 39.5954 10.3994C40.4832 10.7291 40.9362 11.7202 40.6064 12.6097Z" fill="#692880"/>
<path d="M35.0097 8.86682C34.6782 9.75639 33.6889 10.2093 32.7993 9.87777C31.9097 9.54622 31.4568 8.55701 31.7883 7.66744C32.1199 6.77787 33.1091 6.32493 33.9987 6.65648C34.8883 6.98622 35.3413 7.97544 35.0097 8.86682Z" fill="#C3E4F7"/>
<path d="M28.4746 7.25427C28.143 8.14384 27.1538 8.59678 26.2642 8.26523C25.3746 7.93368 24.9216 6.94446 25.2532 6.05489C25.5847 5.16532 26.574 4.71238 27.4636 5.04393C28.3532 5.37548 28.8061 6.3647 28.4746 7.25427Z" fill="#1F8CCA"/>
<path d="M21.7832 7.97326C21.4516 8.86283 20.4624 9.31577 19.5728 8.98422C18.6832 8.65267 18.2302 7.66345 18.5618 6.77388C18.8933 5.88431 19.8826 5.43138 20.774 5.76293C21.6618 6.09448 22.1129 7.08369 21.7832 7.97326Z" fill="#1F8CCA"/>
<path d="M15.748 10.9484C15.4164 11.8379 14.4272 12.2909 13.5376 11.9593C12.648 11.6278 12.195 10.6386 12.5266 9.74898C12.8582 8.85941 13.8474 8.40647 14.737 8.73802C15.6266 9.06776 16.0796 10.057 15.748 10.9484Z" fill="#1F8CCA"/>
<path d="M11.1103 15.8075C10.7787 16.6971 9.7895 17.15 8.8999 16.8184C8.0103 16.4869 7.55735 15.4977 7.88891 14.6081C8.22047 13.7185 9.20972 13.2656 10.0993 13.5972C10.9889 13.9287 11.4419 14.9179 11.1103 15.8075Z" fill="#C3E4F7"/>
<path d="M8.41207 21.9764C8.08051 22.866 7.09126 23.3189 6.20166 22.9874C5.31206 22.6558 4.8591 21.6666 5.19067 20.7771C5.52223 19.8875 6.51148 19.4346 7.40108 19.7661C8.29068 20.0958 8.74363 21.0851 8.41207 21.9764Z" fill="#1F8CCA"/>
<path d="M7.99019 28.6984C7.65863 29.5879 6.66938 30.0409 5.77978 29.7093C4.89018 29.3778 4.43723 28.3886 4.76879 27.499C5.10035 26.6094 6.0896 26.1565 6.9792 26.488C7.8688 26.8178 8.32175 27.8088 7.99019 28.6984Z" fill="#1F8CCA"/>
<path d="M9.87789 35.15C9.54633 36.0396 8.55708 36.4925 7.66748 36.161C6.77788 35.8294 6.32492 34.8402 6.65649 33.9506C6.98805 33.0611 7.9773 32.6081 8.8669 32.9397C9.75468 33.2694 10.2076 34.2605 9.87789 35.15Z" fill="#692880"/>
<path d="M13.8671 40.558C13.5356 41.4475 12.5463 41.9005 11.6567 41.5689C10.7671 41.2374 10.3142 40.2482 10.6457 39.3586C10.9773 38.469 11.9666 38.0161 12.8562 38.3476C13.7439 38.6792 14.1987 39.6684 13.8671 40.558Z" fill="#692880"/>
<path d="M19.4843 44.2921C19.1528 45.1817 18.1635 45.6346 17.2739 45.3031C16.3843 44.9715 15.9314 43.9823 16.2629 43.0927C16.5945 42.2032 17.5837 41.7502 18.4733 42.0818C19.3629 42.4115 19.8159 43.4025 19.4843 44.2921Z" fill="#97227E"/>
<path d="M26.0223 45.8478C25.6907 46.7373 24.7015 47.1903 23.8119 46.8587C22.9223 46.5272 22.4693 45.538 22.7991 44.6484C23.1306 43.7588 24.1199 43.3059 25.0095 43.6374C25.8991 43.9708 26.352 44.9582 26.0223 45.8478Z" fill="#692880"/>
<path d="M32.7109 45.0909C32.3793 45.9805 31.3901 46.4334 30.5005 46.1019C29.6109 45.7703 29.1579 44.7811 29.4895 43.8916C29.8211 43.002 30.8103 42.5491 31.6999 42.8806C32.5895 43.2122 33.0425 44.2014 32.7109 45.0909Z" fill="#692880"/>
<path d="M38.7187 42.0887C38.3871 42.9783 37.3979 43.4312 36.5083 43.0997C35.6187 42.7681 35.1657 41.7789 35.4973 40.8894C35.8289 39.9998 36.8181 39.5469 37.7077 39.8784C38.5973 40.21 39.0503 41.201 38.7187 42.0887Z" fill="#692880"/>
<path d="M43.3457 37.2062C43.0141 38.0957 42.0248 38.5487 41.1352 38.2171C40.2456 37.8856 39.7927 36.8964 40.1243 36.0068C40.4558 35.1172 41.4451 34.6643 42.3347 34.9958C43.2243 35.3274 43.6772 36.3166 43.3457 37.2062Z" fill="#97227E"/>
<path d="M45.9726 31.2311C45.6411 32.1206 44.6518 32.5736 43.7622 32.242C42.8726 31.9105 42.4197 30.9213 42.7512 30.0317C43.0828 29.1421 44.072 28.6892 44.9598 29.0207C45.8512 29.3523 46.3042 30.3415 45.9726 31.2311Z" fill="#692880"/>
<path d="M46.4443 24.473C46.1127 25.3626 45.1235 25.8155 44.2339 25.484C43.3443 25.1524 42.8913 24.1632 43.2229 23.2736C43.5545 22.3841 44.5437 21.9311 45.4333 22.2627C46.3247 22.5942 46.7759 23.5835 46.4443 24.473Z" fill="#692880"/>
<path d="M44.5625 18.0597C44.2309 18.9493 43.2416 19.4022 42.352 19.0706C41.4624 18.7391 41.0095 17.7499 41.3411 16.8603C41.6726 15.9707 42.6619 15.5178 43.5515 15.8494C44.4411 16.1809 44.894 17.1701 44.5625 18.0597Z" fill="#692880"/>
<path d="M40.9563 16.5649C40.5197 17.295 39.5739 17.5306 38.8455 17.0939C38.1172 16.6573 37.8798 15.7134 38.3165 14.9832C38.7531 14.2549 39.6971 14.0176 40.4254 14.4524C41.1556 14.8908 41.3929 15.8366 40.9563 16.5649Z" fill="#692880"/>
<path d="M36.6399 12.3578C36.2032 13.088 35.2593 13.3235 34.5291 12.8869C33.8008 12.4502 33.5634 11.5063 34.0001 10.7762C34.4367 10.0479 35.3807 9.81051 36.1108 10.2471C36.8392 10.6838 37.0765 11.6295 36.6399 12.3578Z" fill="#692880"/>
<path d="M31.1497 9.87387C30.713 10.6022 29.7691 10.8413 29.0389 10.4029C28.3105 9.96627 28.0732 9.02235 28.5098 8.29221C28.9465 7.56208 29.8923 7.32655 30.6206 7.76318C31.349 8.19982 31.5863 9.14555 31.1497 9.87387Z" fill="#C3E4F7"/>
<path d="M25.1424 9.41758C24.7057 10.1477 23.76 10.3851 23.0316 9.94842C22.3033 9.51179 22.0659 8.56787 22.5007 7.83773C22.9374 7.10941 23.8813 6.87207 24.6115 7.30689C25.3435 7.74352 25.5808 8.68926 25.1424 9.41758Z" fill="#1F8CCA"/>
<path d="M19.3479 11.0519C18.9112 11.7802 17.9654 12.0175 17.2371 11.5809C16.5069 11.1443 16.2714 10.1985 16.7062 9.47019C17.1429 8.74006 18.0886 8.50453 18.817 8.94116C19.5453 9.37779 19.7827 10.3217 19.3479 11.0519Z" fill="#1F8CCA"/>
<path d="M14.4729 14.5738C14.0363 15.3039 13.0923 15.5395 12.3621 15.1046C11.6338 14.668 11.3964 13.7241 11.8331 12.9939C12.2697 12.2656 13.2137 12.0283 13.9439 12.4649C14.6722 12.9015 14.9095 13.8455 14.4729 14.5738Z" fill="#1F8CCA"/>
<path d="M11.0939 19.5632C10.6573 20.2915 9.71151 20.5289 8.98497 20.0922C8.25481 19.6556 8.01747 18.7117 8.45411 17.9815C8.89076 17.2532 9.83471 17.0159 10.5649 17.4507C11.2932 17.8891 11.5306 18.8349 11.0939 19.5632Z" fill="#C3E4F7"/>
<path d="M9.62549 25.4116C9.18884 26.1418 8.24489 26.3773 7.51472 25.9425C6.78456 25.5059 6.54722 24.5619 6.98568 23.8318C7.42051 23.1017 8.36628 22.8661 9.09644 23.301C9.82479 23.7376 10.0621 24.6833 9.62549 25.4116Z" fill="#1F8CCA"/>
<path d="M10.2366 31.3976C9.79993 32.126 8.85416 32.3633 8.12581 31.9267C7.39746 31.49 7.16011 30.5461 7.59676 29.816C8.03341 29.0876 8.97736 28.8503 9.70752 29.2869C10.4341 29.7236 10.6714 30.6693 10.2366 31.3976Z" fill="#1F8CCA"/>
<path d="M12.8678 36.809C12.4311 37.5391 11.4854 37.7747 10.757 37.338C10.0287 36.9014 9.78951 35.9557 10.2262 35.2273C10.6628 34.499 11.6068 34.2617 12.3369 34.6983C13.0671 35.1349 13.3044 36.0789 12.8678 36.809Z" fill="#692880"/>
<path d="M17.2029 41.0109C16.7663 41.7392 15.8223 41.9766 15.0922 41.5399C14.3638 41.1033 14.1265 40.1576 14.5613 39.4293C14.9979 38.7009 15.9437 38.4636 16.6721 38.9002C17.4022 39.3369 17.6396 40.2826 17.2029 41.0109Z" fill="#692880"/>
<path d="M22.7036 43.4477C22.267 44.1779 21.3212 44.4134 20.5929 43.9786C19.8627 43.542 19.6253 42.5962 20.0638 41.8679C20.5004 41.1378 21.4444 40.9022 22.1746 41.3389C22.9029 41.7737 23.1403 42.7176 22.7036 43.4477Z" fill="#97227E"/>
<path d="M28.7134 43.8697C28.2767 44.598 27.331 44.8353 26.6026 44.3987C25.8725 43.9639 25.6351 43.0181 26.0736 42.2898C26.5102 41.5597 27.4542 41.3241 28.1843 41.759C28.9127 42.1956 29.15 43.1395 28.7134 43.8697Z" fill="#692880"/>
<path d="M34.4914 42.2063C34.0547 42.9346 33.109 43.172 32.3824 42.7353C31.6523 42.3005 31.4149 41.353 31.8516 40.6246C32.2882 39.8963 33.2322 39.6572 33.9623 40.0956C34.6907 40.5322 34.928 41.478 34.4914 42.2063Z" fill="#692880"/>
<path d="M39.3614 38.6609C38.9248 39.391 37.9808 39.6284 37.2506 39.1917C36.5223 38.7551 36.2831 37.8112 36.7216 37.081C37.1582 36.3509 38.1022 36.1154 38.8324 36.552C39.5607 36.9886 39.798 37.9326 39.3614 38.6609Z" fill="#692880"/>
<path d="M42.6467 33.8309C42.2101 34.5592 41.2661 34.7966 40.536 34.3599C39.8076 33.9233 39.5703 32.9776 40.0069 32.2511C40.4436 31.5209 41.3875 31.2836 42.1159 31.7202C42.846 32.1569 43.0834 33.1026 42.6467 33.8309Z" fill="#97227E"/>
<path d="M44.1629 27.9591C43.7262 28.6874 42.7805 28.9247 42.0521 28.4881C41.3238 28.0533 41.0864 27.1076 41.5213 26.3774C41.9579 25.6473 42.9037 25.4118 43.632 25.8484C44.3622 26.285 44.5995 27.2289 44.1629 27.9591Z" fill="#692880"/>
<path d="M43.5506 22.0074C43.1139 22.7357 42.17 22.9731 41.4398 22.5382C40.7115 22.1016 40.4741 21.1559 40.9089 20.4275C41.3456 19.6992 42.2914 19.4619 43.0197 19.8985C43.7499 20.3333 43.9872 21.2773 43.5506 22.0074Z" fill="#692880"/>
<path d="M40.5682 20.065C40.07 20.6375 39.2039 20.6991 38.6314 20.2027C38.0589 19.7062 37.9973 18.8384 38.4937 18.2659C38.9901 17.6934 39.858 17.6318 40.4305 18.1282C41.0031 18.6246 41.0647 19.4925 40.5682 20.065Z" fill="#692880"/>
<path d="M37.4302 15.6953C36.932 16.2679 36.0659 16.3295 35.4934 15.833C34.9209 15.3348 34.8593 14.4688 35.3575 13.8963C35.854 13.3238 36.7218 13.2622 37.2943 13.7586C37.8669 14.2568 37.9267 15.1228 37.4302 15.6953Z" fill="#692880"/>
<path d="M32.9936 12.6587C32.4953 13.2312 31.6293 13.2928 31.0549 12.7964C30.4824 12.3 30.4208 11.4322 30.919 10.8596C31.4155 10.2871 32.2833 10.2255 32.8559 10.722C33.4284 11.2184 33.49 12.0862 32.9936 12.6587Z" fill="#692880"/>
<path d="M27.784 11.3216C27.2876 11.8941 26.4197 11.9557 25.8472 11.4593C25.2747 10.9628 25.2131 10.095 25.7095 9.52249C26.206 8.94998 27.0738 8.88838 27.6463 9.3848C28.2189 9.88122 28.2805 10.749 27.784 11.3216Z" fill="#C3E4F7"/>
<path d="M22.4374 11.856C21.9391 12.4285 21.0731 12.4901 20.5005 11.9937C19.928 11.4973 19.8664 10.6294 20.3628 10.0569C20.8611 9.4844 21.7271 9.4228 22.2997 9.91922C22.8722 10.4156 22.9338 11.2835 22.4374 11.856Z" fill="#1F8CCA"/>
<path d="M17.6034 14.1931C17.1069 14.7657 16.2391 14.8273 15.6666 14.3308C15.094 13.8344 15.0324 12.9666 15.5289 12.3941C16.0253 11.8216 16.8931 11.76 17.4657 12.2564C18.04 12.7528 18.0998 13.6206 17.6034 14.1931Z" fill="#1F8CCA"/>
<path d="M13.8573 18.0523C13.3608 18.6248 12.493 18.6864 11.9205 18.19C11.3479 17.6935 11.2863 16.8257 11.7828 16.2532C12.2792 15.6807 13.1471 15.6191 13.7196 16.1155C14.2921 16.6119 14.3555 17.4779 13.8573 18.0523Z" fill="#1F8CCA"/>
<path d="M11.6571 22.9622C11.1588 23.5347 10.2928 23.5963 9.72026 23.0999C9.14773 22.6016 9.08613 21.7356 9.58256 21.1631C10.079 20.5906 10.9469 20.529 11.5194 21.0254C12.0937 21.5237 12.1535 22.3897 11.6571 22.9622Z" fill="#C3E4F7"/>
<path d="M11.2616 28.318C10.7633 28.8905 9.89729 28.9521 9.32475 28.4539C8.75222 27.9575 8.69062 27.0896 9.18706 26.5171C9.68349 25.9446 10.5514 25.883 11.1239 26.3794C11.6964 26.8777 11.758 27.7455 11.2616 28.318Z" fill="#1F8CCA"/>
<path d="M12.7323 33.4832C12.2358 34.0557 11.368 34.1191 10.7955 33.6209C10.2229 33.1245 10.1613 32.2566 10.6578 31.6841C11.1542 31.1116 12.0221 31.05 12.5946 31.5464C13.1671 32.0428 13.2287 32.9107 12.7323 33.4832Z" fill="#1F8CCA"/>
<path d="M15.8876 37.8509C15.3911 38.4234 14.5233 38.485 13.9507 37.9885C13.3782 37.4921 13.3166 36.6243 13.813 36.0518C14.3095 35.4793 15.1773 35.4177 15.7499 35.9141C16.3242 36.4105 16.3858 37.2783 15.8876 37.8509Z" fill="#692880"/>
<path d="M20.3436 40.8477C19.8472 41.4202 18.9793 41.4818 18.4068 40.9854C17.8343 40.4872 17.7727 39.6212 18.2691 39.0469C18.7673 38.4743 19.6334 38.4127 20.2059 38.911C20.7784 39.4074 20.84 40.2752 20.3436 40.8477Z" fill="#692880"/>
<path d="M25.5598 42.1541C25.0634 42.7266 24.1955 42.7882 23.623 42.2918C23.0486 41.7954 22.987 40.9275 23.4853 40.355C23.9817 39.7825 24.8496 39.7209 25.4221 40.2173C25.9946 40.7137 26.0562 41.5816 25.5598 42.1541Z" fill="#97227E"/>
<path d="M30.8944 41.5923C30.398 42.1648 29.5301 42.2264 28.9576 41.73C28.385 41.2336 28.3234 40.3658 28.8199 39.7932C29.3163 39.2207 30.1842 39.1591 30.7567 39.6556C31.331 40.152 31.3926 41.0198 30.8944 41.5923Z" fill="#692880"/>
<path d="M35.7253 39.2354C35.2271 39.8079 34.361 39.8695 33.7867 39.3731C33.2141 38.8767 33.1525 38.0088 33.649 37.4363C34.1472 36.8638 35.0133 36.8022 35.5858 37.2986C36.162 37.795 36.2236 38.6629 35.7253 39.2354Z" fill="#692880"/>
<path d="M39.3648 35.501C38.8684 36.0735 38.0005 36.1351 37.428 35.6387C36.8554 35.1423 36.7938 34.2744 37.2921 33.7019C37.7885 33.1294 38.6564 33.0678 39.2271 33.5642C39.8014 34.0607 39.8612 34.9285 39.3648 35.501Z" fill="#692880"/>
<path d="M41.6112 30.5769C41.1148 31.1494 40.2469 31.211 39.6744 30.7146C39.1018 30.2164 39.0402 29.3504 39.5367 28.7779C40.0331 28.2053 40.901 28.1438 41.4735 28.6402C42.0478 29.1366 42.1094 30.0044 41.6112 30.5769Z" fill="#97227E"/>
<path d="M42.0012 25.2523C41.503 25.8248 40.6369 25.8864 40.0644 25.3882C39.49 24.8917 39.4284 24.0239 39.9267 23.4514C40.4249 22.8789 41.291 22.8173 41.8653 23.3155C42.436 23.8101 42.4976 24.678 42.0012 25.2523Z" fill="#692880"/>
<path d="M39.9922 23.0528C39.4523 23.4913 38.6623 23.4098 38.2239 22.8717C37.7872 22.3354 37.8669 21.5437 38.405 21.1052C38.9431 20.6668 39.7331 20.7483 40.1716 21.2864C40.6118 21.8245 40.5303 22.6144 39.9922 23.0528Z" fill="#692880"/>
<path d="M37.8525 18.6231C37.3143 19.0615 36.5244 18.98 36.0859 18.4437C35.6475 17.9056 35.729 17.1157 36.2671 16.6772C36.8052 16.2388 37.5952 16.3203 38.0336 16.8584C38.4703 17.3947 38.3888 18.1864 37.8525 18.6231Z" fill="#692880"/>
<path d="M34.3319 15.1918C33.7938 15.6302 33.0021 15.5487 32.5654 15.0106C32.127 14.4743 32.2085 13.6826 32.7466 13.2441C33.2847 12.8057 34.0747 12.8872 34.5131 13.4253C34.9498 13.9616 34.8682 14.7533 34.3319 15.1918Z" fill="#692880"/>
<path d="M29.8476 13.1695C29.3095 13.6062 28.5195 13.5265 28.0811 12.9884C27.6426 12.4503 27.7241 11.6585 28.2622 11.2219C28.8003 10.7835 29.5903 10.865 30.0288 11.4031C30.4654 11.9412 30.3857 12.7311 29.8476 13.1695Z" fill="#692880"/>
<path d="M24.9473 12.8109C24.4092 13.2493 23.6175 13.1678 23.1808 12.6297C22.7424 12.0916 22.8239 11.3017 23.3602 10.8633C23.8983 10.4248 24.6882 10.5064 25.1267 11.0444C25.5652 11.5807 25.4854 12.3725 24.9473 12.8109Z" fill="#C3E4F7"/>
<path d="M20.2245 14.1571C19.6882 14.5955 18.8965 14.514 18.458 13.9759C18.0196 13.4378 18.1011 12.6479 18.6392 12.2095C19.1773 11.771 19.9672 11.8526 20.4057 12.3906C20.8442 12.9269 20.7644 13.7187 20.2245 14.1571Z" fill="#1F8CCA"/>
<path d="M16.2441 17.0447C15.7059 17.4831 14.916 17.4016 14.4775 16.8635C14.0391 16.3254 14.1206 15.5355 14.6587 15.0971C15.1968 14.6586 15.9868 14.7401 16.4252 15.2764C16.8637 15.8163 16.7822 16.6063 16.2441 17.0447Z" fill="#1F8CCA"/>
<path d="M13.4921 21.1231C12.954 21.5615 12.1622 21.48 11.7256 20.9437C11.2871 20.4056 11.3687 19.6157 11.9068 19.1772C12.4449 18.7388 13.2348 18.8203 13.6733 19.3584C14.1117 19.8947 14.0302 20.6864 13.4921 21.1231Z" fill="#1F8CCA"/>
<path d="M12.2948 25.8863C11.7567 26.3248 10.9668 26.2432 10.5283 25.7051C10.0899 25.1671 10.1714 24.3771 10.7095 23.9387C11.2476 23.5021 12.0376 23.5818 12.476 24.1199C12.9127 24.658 12.8329 25.4479 12.2948 25.8863Z" fill="#C3E4F7"/>
<path d="M12.8085 30.7688C12.2704 31.2073 11.4786 31.1257 11.042 30.5894C10.6035 30.0514 10.6851 29.2614 11.2232 28.823C11.7613 28.3845 12.5512 28.4661 12.9897 29.0042C13.4263 29.5404 13.3448 30.3304 12.8085 30.7688Z" fill="#1F8CCA"/>
<path d="M14.9657 35.2007C14.4276 35.6391 13.6377 35.5576 13.1992 35.0213C12.7608 34.4832 12.8423 33.6933 13.3804 33.2549C13.9185 32.8164 14.7103 32.898 15.1469 33.4361C15.5854 33.9705 15.5038 34.7623 14.9657 35.2007Z" fill="#1F8CCA"/>
<path d="M18.5077 38.5994C17.9696 39.0378 17.1797 38.9563 16.7412 38.42C16.3028 37.8819 16.3843 37.0902 16.9224 36.6536C17.4605 36.2151 18.2505 36.2966 18.6889 36.8347C19.1274 37.371 19.0458 38.1609 18.5077 38.5994Z" fill="#692880"/>
<path d="M23.0028 40.5957C22.4647 41.0324 21.6748 40.9526 21.2363 40.4145C20.7979 39.8783 20.8794 39.0865 21.4175 38.6481C21.9538 38.2096 22.7456 38.2912 23.1822 38.8275C23.6225 39.3674 23.541 40.1573 23.0028 40.5957Z" fill="#692880"/>
<path d="M27.8984 40.9257C27.3621 41.3641 26.5703 41.2826 26.1318 40.7463C25.6934 40.2101 25.7749 39.4183 26.313 38.9799C26.8511 38.5414 27.6411 38.623 28.0795 39.1592C28.5162 39.6991 28.4365 40.4891 27.8984 40.9257Z" fill="#97227E"/>
<path d="M32.6192 39.5631C32.0811 40.0015 31.2911 39.92 30.8527 39.3819C30.4142 38.8438 30.4958 38.0539 31.0321 37.6154C31.5702 37.1788 32.3601 37.2585 32.7986 37.7966C33.2388 38.3329 33.1573 39.1246 32.6192 39.5631Z" fill="#692880"/>
<path d="M36.4843 36.7695C35.9462 37.208 35.1562 37.1265 34.7178 36.5884C34.2793 36.0503 34.3608 35.2604 34.899 34.8219C35.4371 34.3835 36.227 34.465 36.6655 35.0013C37.1039 35.5412 37.0224 36.3311 36.4843 36.7695Z" fill="#692880"/>
<path d="M39.2812 32.6859C38.7431 33.1243 37.9531 33.0428 37.5147 32.5047C37.0762 31.9666 37.1577 31.1767 37.6958 30.7383C38.2339 30.2998 39.0239 30.3814 39.4623 30.9194C39.9008 31.4575 39.8193 32.2475 39.2812 32.6859Z" fill="#692880"/>
<path d="M40.4688 27.9499C39.9307 28.3865 39.1408 28.3068 38.7023 27.7687C38.2638 27.2306 38.3454 26.4389 38.8817 26.0005C39.4198 25.5638 40.2097 25.6435 40.6482 26.1816C41.0885 26.7197 41.0069 27.5115 40.4688 27.9499Z" fill="#97227E"/>
<path d="M38.6423 25.6724C38.106 25.9713 37.4302 25.7793 37.1313 25.2448C36.8323 24.7103 37.0244 24.0327 37.5588 23.7338C38.0933 23.4349 38.7709 23.6269 39.0699 24.1614C39.3688 24.6958 39.1768 25.3716 38.6423 25.6724Z" fill="#97227E"/>
<path d="M37.4552 21.4873C36.9189 21.7862 36.2431 21.596 35.9441 21.0597C35.6452 20.5253 35.8354 19.8477 36.3717 19.5487C36.9062 19.2498 37.582 19.4418 37.881 19.9763C38.1817 20.5126 37.9897 21.1884 37.4552 21.4873Z" fill="#692880"/>
<path d="M34.9157 17.9599C34.3795 18.2588 33.7036 18.0686 33.4047 17.5323C33.1057 16.9978 33.2978 16.3202 33.8323 16.0213C34.3686 15.7223 35.0444 15.9126 35.3433 16.4489C35.6405 16.9851 35.4502 17.6609 34.9157 17.9599Z" fill="#692880"/>
<path d="M31.321 15.5139C30.7865 15.8128 30.1089 15.6208 29.81 15.0863C29.511 14.5518 29.7031 13.8742 30.2376 13.5753C30.772 13.2764 31.4478 13.4666 31.7486 14.0011C32.0476 14.5391 31.8573 15.2167 31.321 15.5139Z" fill="#692880"/>
<path d="M27.1081 14.4524C26.5736 14.7513 25.896 14.5611 25.5971 14.0248C25.2981 13.4904 25.4902 12.8146 26.0247 12.5138C26.561 12.2149 27.2368 12.4069 27.5357 12.9414C27.8347 13.4759 27.6426 14.1535 27.1081 14.4524Z" fill="#692880"/>
<path d="M22.7931 14.9033C22.2586 15.2023 21.5828 15.0102 21.282 14.4758C20.9831 13.9413 21.1733 13.2655 21.7096 12.9647C22.2441 12.6658 22.9217 12.8579 23.2207 13.3923C23.5196 13.9268 23.3276 14.6026 22.7931 14.9033Z" fill="#C3E4F7"/>
<path d="M18.8849 16.8076C18.3504 17.1066 17.6728 16.9145 17.3738 16.38C17.0749 15.8456 17.2651 15.168 17.8014 14.869C18.3377 14.5701 19.0135 14.7622 19.3125 15.2966C19.6114 15.8329 19.4212 16.5087 18.8849 16.8076Z" fill="#1F8CCA"/>
<path d="M15.864 19.9385C15.3295 20.2374 14.6519 20.0454 14.3529 19.5109C14.054 18.9764 14.246 18.2988 14.7805 17.9999C15.315 17.701 15.9926 17.893 16.2916 18.4275C16.5887 18.9638 16.3985 19.6395 15.864 19.9385Z" fill="#1F8CCA"/>
<path d="M14.0925 23.9023C13.5562 24.2013 12.8804 24.0092 12.5815 23.4748C12.2825 22.9403 12.4746 22.2627 13.009 21.9638C13.5435 21.6648 14.2211 21.8569 14.5201 22.3913C14.819 22.9258 14.627 23.6016 14.0925 23.9023Z" fill="#1F8CCA"/>
<path d="M13.7937 28.2326C13.2592 28.5315 12.5816 28.3395 12.2826 27.805C11.9837 27.2687 12.1757 26.5929 12.7102 26.294C13.2447 25.995 13.9205 26.1853 14.2213 26.7216C14.5184 27.2578 14.3282 27.9336 13.7937 28.2326Z" fill="#C3E4F7"/>
<path d="M14.9929 32.4194C14.4584 32.7184 13.7808 32.5281 13.4818 31.9919C13.1829 31.4574 13.3749 30.7798 13.9094 30.4809C14.4439 30.1819 15.1215 30.374 15.4205 30.9084C15.7212 31.4447 15.5292 32.1205 14.9929 32.4194Z" fill="#1F8CCA"/>
<path d="M17.5568 35.9218C17.0223 36.2207 16.3446 36.0287 16.0457 35.4942C15.7468 34.9579 15.937 34.2821 16.4733 33.9832C17.0078 33.6843 17.6854 33.8745 17.9843 34.4108C18.2833 34.947 18.093 35.6228 17.5568 35.9218Z" fill="#1F8CCA"/>
<path d="M21.1657 38.3476C20.6313 38.6465 19.9555 38.4544 19.6547 37.92C19.3557 37.3855 19.5478 36.7079 20.0823 36.4108C20.6168 36.1119 21.2944 36.3039 21.5915 36.8384C21.8923 37.371 21.7002 38.0468 21.1657 38.3476Z" fill="#692880"/>
<path d="M25.3767 39.3838C24.8422 39.6827 24.1646 39.4925 23.8656 38.9562C23.5667 38.4218 23.7587 37.7442 24.2932 37.4452C24.8277 37.1463 25.5053 37.3383 25.8043 37.8728C26.1032 38.4091 25.913 39.0867 25.3767 39.3838Z" fill="#692880"/>
<path d="M29.697 38.9185C29.1607 39.2174 28.4849 39.0272 28.1859 38.4909C27.887 37.9564 28.079 37.2806 28.6135 36.9799C29.148 36.6809 29.8256 36.873 30.1246 37.4075C30.4235 37.9437 30.2315 38.6195 29.697 38.9185Z" fill="#97227E"/>
<path d="M33.4894 37.0775C32.9549 37.3764 32.2773 37.1843 31.9783 36.6499C31.6794 36.1154 31.8696 35.4378 32.4059 35.1389C32.9404 34.8399 33.618 35.032 33.9151 35.5646C34.2159 36.1027 34.0239 36.7785 33.4894 37.0775Z" fill="#692880"/>
<path d="M36.5491 33.9502C36.0146 34.2491 35.337 34.0571 35.0398 33.5226C34.7409 32.9882 34.9311 32.3106 35.4674 32.0116C36.0019 31.7127 36.6777 31.9047 36.9785 32.4392C37.2756 32.9755 37.0854 33.6531 36.5491 33.9502Z" fill="#692880"/>
<path d="M38.3073 30.0081C37.7711 30.307 37.0952 30.115 36.7963 29.5805C36.4973 29.046 36.6894 28.3684 37.2239 28.0695C37.7584 27.7705 38.436 27.9626 38.7349 28.4971C39.0339 29.0333 38.8418 29.7091 38.3073 30.0081Z" fill="#692880"/>
<path d="M37.1983 27.7452C36.6802 27.9264 36.1131 27.651 35.9319 27.1328C35.7507 26.6147 36.0243 26.0476 36.5443 25.8682C37.0625 25.687 37.6296 25.9624 37.8107 26.4806C37.9901 26.9988 37.7165 27.5658 37.1983 27.7452Z" fill="#692880"/>
<path d="M36.8038 23.8717C36.2838 24.0529 35.7185 23.7793 35.5374 23.2593C35.3562 22.7412 35.6298 22.1741 36.1497 21.9947C36.6679 21.8154 37.235 22.0889 37.4144 22.6053C37.5956 23.1253 37.322 23.6923 36.8038 23.8717Z" fill="#97227E"/>
<path d="M35.1112 20.3677C34.5931 20.5471 34.026 20.2735 33.8448 19.7553C33.6636 19.2372 33.939 18.6701 34.4572 18.4907C34.9754 18.3096 35.5425 18.5831 35.7236 19.1013C35.903 19.6195 35.6294 20.1865 35.1112 20.3677Z" fill="#692880"/>
<path d="M32.3225 17.6502C31.8043 17.8295 31.2372 17.556 31.0579 17.0396C30.8767 16.5215 31.1503 15.9544 31.6703 15.7732C32.1884 15.592 32.7555 15.8656 32.9367 16.3838C33.1143 16.9037 32.8407 17.4708 32.3225 17.6502Z" fill="#692880"/>
<path d="M28.7735 16.059C28.2554 16.2384 27.6883 15.9648 27.5071 15.4467C27.3259 14.9285 27.5995 14.3614 28.1195 14.1802C28.6377 13.9991 29.2047 14.2745 29.3859 14.7908C29.5653 15.3108 29.2917 15.8779 28.7735 16.059Z" fill="#692880"/>
<path d="M24.8984 15.7858C24.3802 15.9651 23.8131 15.6916 23.6319 15.1734C23.4507 14.6553 23.7261 14.0882 24.2443 13.907C24.7625 13.7258 25.3296 13.9994 25.5107 14.5176C25.6901 15.0375 25.4165 15.6046 24.8984 15.7858Z" fill="#692880"/>
<path d="M21.1545 16.8585C20.6363 17.0379 20.0692 16.7643 19.888 16.2461C19.7087 15.728 19.9822 15.1609 20.5004 14.9815C21.0186 14.8003 21.5857 15.0757 21.7669 15.5921C21.9481 16.1102 21.6745 16.6773 21.1545 16.8585Z" fill="#C3E4F7"/>
<path d="M18.0042 19.1484C17.486 19.3277 16.9189 19.0542 16.7395 18.536C16.5583 18.0178 16.8319 17.4508 17.3501 17.2696C17.8683 17.0884 18.4354 17.3638 18.6166 17.882C18.7959 18.4001 18.5223 18.9672 18.0042 19.1484Z" fill="#1F8CCA"/>
<path d="M15.8264 22.366C15.3064 22.5472 14.7411 22.2718 14.5599 21.7536C14.3805 21.2355 14.6541 20.6684 15.1723 20.489C15.6905 20.3078 16.2576 20.5814 16.4369 21.1014C16.6181 21.6195 16.3445 22.1866 15.8264 22.366Z" fill="#1F8CCA"/>
<path d="M14.888 26.138C14.3698 26.3192 13.8027 26.0438 13.6234 25.5275C13.444 25.0075 13.7176 24.4422 14.2358 24.261C14.7539 24.0799 15.321 24.3553 15.5004 24.8734C15.6798 25.3916 15.4062 25.9587 14.888 26.138Z" fill="#1F8CCA"/>
<path d="M15.295 30.0169C14.7768 30.1981 14.2097 29.9245 14.0286 29.4064C13.8474 28.8882 14.121 28.3211 14.641 28.14C15.1591 27.9606 15.7262 28.2342 15.9074 28.7523C16.0868 29.2705 15.8132 29.8376 15.295 30.0169Z" fill="#C3E4F7"/>
<path d="M17.0109 33.5045C16.4927 33.6857 15.9256 33.4103 15.7445 32.8921C15.5651 32.374 15.8387 31.8069 16.3569 31.6257C16.875 31.4446 17.4421 31.7181 17.6215 32.2381C17.8045 32.7581 17.5309 33.3252 17.0109 33.5045Z" fill="#1F8CCA"/>
<path d="M19.8165 36.2042C19.2983 36.3836 18.7312 36.11 18.5518 35.5918C18.3706 35.0737 18.646 34.5066 19.1642 34.3272C19.6824 34.1479 20.2495 34.4214 20.4289 34.9396C20.6082 35.4578 20.3346 36.0248 19.8165 36.2042Z" fill="#1F8CCA"/>
<path d="M23.3671 37.775C22.8489 37.9562 22.2818 37.6826 22.1006 37.1644C21.9195 36.6463 22.1949 36.0792 22.713 35.898C23.2312 35.7168 23.7983 35.9922 23.9795 36.5104C24.1607 37.0285 23.8871 37.5956 23.3671 37.775Z" fill="#692880"/>
<path d="M27.2499 38.036C26.7317 38.2171 26.1646 37.9436 25.9835 37.4236C25.8023 36.9054 26.0777 36.3384 26.5958 36.159C27.114 35.9778 27.6811 36.2532 27.8623 36.7714C28.0417 37.2895 27.7681 37.8566 27.2499 38.036Z" fill="#692880"/>
<path d="M30.8808 37.0034C30.3626 37.1828 29.7955 36.9092 29.6143 36.391C29.4331 35.8729 29.7085 35.3058 30.2267 35.1246C30.7449 34.9452 31.312 35.2188 31.4914 35.7352C31.6725 36.257 31.399 36.8222 30.8808 37.0034Z" fill="#97227E"/>
<path d="M34.0657 34.7203C33.5475 34.9015 32.9804 34.6261 32.801 34.1098C32.6199 33.5916 32.8934 33.0245 33.4116 32.8433C33.9298 32.664 34.4969 32.9376 34.6781 33.4557C34.8574 33.9739 34.5839 34.541 34.0657 34.7203Z" fill="#692880"/>
<path d="M36.2297 31.5172C35.7097 31.6984 35.1444 31.4248 34.9632 30.9066C34.7838 30.3885 35.0574 29.8214 35.5756 29.6402C36.0938 29.4609 36.6609 29.7344 36.8421 30.2526C37.0214 30.7707 36.7479 31.3378 36.2297 31.5172Z" fill="#692880"/>
<path d="M35.5732 29.3451C35.0859 29.423 34.6293 29.0915 34.5514 28.6059C34.4735 28.1204 34.805 27.6638 35.2906 27.5841C35.7762 27.5062 36.2327 27.8377 36.3107 28.3233C36.3904 28.8107 36.0588 29.2672 35.5732 29.3451Z" fill="#692880"/>
<path d="M35.8346 25.8628C35.3491 25.9407 34.8907 25.6092 34.8146 25.1236C34.7348 24.6381 35.0664 24.1797 35.5538 24.1036C36.0394 24.0257 36.4959 24.3573 36.5738 24.8428C36.6517 25.3284 36.3202 25.7867 35.8346 25.8628Z" fill="#692880"/>
<path d="M34.8926 22.5037C34.407 22.5816 33.9486 22.2519 33.8707 21.7645C33.7928 21.279 34.1244 20.8224 34.6099 20.7445C35.0973 20.6666 35.5539 20.9981 35.6318 21.4837C35.7079 21.9674 35.3782 22.4258 34.8926 22.5037Z" fill="#97227E"/>
<path d="M32.8566 19.6684C32.371 19.7463 31.9145 19.4147 31.8365 18.9292C31.7586 18.4436 32.0902 17.9852 32.5758 17.9073C33.0613 17.8294 33.5197 18.161 33.5976 18.6465C33.6737 19.1321 33.3422 19.5905 32.8566 19.6684Z" fill="#692880"/>
<path d="M29.9746 17.7043C29.4891 17.7822 29.0307 17.4506 28.9528 16.9651C28.8748 16.4795 29.2064 16.0211 29.692 15.9432C30.1775 15.8653 30.6341 16.1969 30.7138 16.6824C30.7917 17.1698 30.4602 17.6263 29.9746 17.7043Z" fill="#692880"/>
<path d="M26.5972 16.8527C26.1117 16.9306 25.6551 16.5991 25.5754 16.1135C25.4993 15.628 25.829 15.1696 26.3146 15.0917C26.8002 15.0138 27.2585 15.3435 27.3346 15.8309C27.4144 16.3183 27.0828 16.7748 26.5972 16.8527Z" fill="#692880"/>
<path d="M23.1242 17.2117C22.6386 17.2896 22.182 16.9581 22.1041 16.4725C22.0262 15.987 22.3578 15.5304 22.8433 15.4525C23.3307 15.3746 23.7855 15.7062 23.8652 16.1917C23.9413 16.6773 23.6115 17.1338 23.1242 17.2117Z" fill="#692880"/>
<path d="M19.9844 18.7372C19.4988 18.8151 19.0422 18.4836 18.9625 17.998C18.8846 17.5125 19.2162 17.0541 19.7017 16.9762C20.1873 16.8983 20.6439 17.2298 20.7218 17.7154C20.8015 18.2027 20.4699 18.6611 19.9844 18.7372Z" fill="#C3E4F7"/>
<path d="M17.5566 21.2374C17.0693 21.3153 16.6127 20.9837 16.5348 20.4982C16.4569 20.0126 16.7884 19.556 17.274 19.4781C17.7596 19.4002 18.2161 19.7318 18.2959 20.2173C18.372 20.7029 18.0422 21.1594 17.5566 21.2374Z" fill="#1F8CCA"/>
<path d="M16.1348 24.4189C15.6492 24.4968 15.1908 24.1652 15.1129 23.6797C15.035 23.1941 15.3666 22.7357 15.8521 22.6578C16.3377 22.5799 16.7943 22.9115 16.8722 23.397C16.9519 23.8844 16.6203 24.3409 16.1348 24.4189Z" fill="#1F8CCA"/>
<path d="M15.8849 27.9063C15.3993 27.9842 14.941 27.6527 14.8649 27.1689C14.787 26.6834 15.1185 26.225 15.6041 26.1471C16.0896 26.0692 16.5462 26.4007 16.6241 26.8863C16.702 27.3718 16.3705 27.8284 15.8849 27.9063Z" fill="#1F8CCA"/>
<path d="M16.8498 31.2544C16.3642 31.3323 15.9076 31.0008 15.8297 30.5152C15.7518 30.0297 16.0834 29.5731 16.5689 29.4952C17.0545 29.4173 17.5111 29.7489 17.589 30.2344C17.6669 30.72 17.3371 31.1765 16.8498 31.2544Z" fill="#C3E4F7"/>
<path d="M18.9005 34.0792C18.415 34.1571 17.9584 33.8255 17.8805 33.34C17.8026 32.8544 18.1341 32.396 18.6197 32.3199C19.1053 32.242 19.5619 32.5736 19.6398 33.0591C19.7177 33.5429 19.3861 33.9994 18.9005 34.0792Z" fill="#1F8CCA"/>
<path d="M21.7891 36.0211C21.3035 36.0991 20.8451 35.7675 20.7672 35.282C20.6893 34.7964 21.0209 34.3398 21.5064 34.2601C21.992 34.1822 22.4504 34.5138 22.5265 34.9993C22.6062 35.4867 22.2746 35.9451 21.7891 36.0211Z" fill="#1F8CCA"/>
<path d="M25.1748 36.8636C24.6892 36.9415 24.2309 36.6099 24.1529 36.1244C24.075 35.6388 24.4066 35.1805 24.8922 35.1044C25.3777 35.0265 25.8343 35.358 25.9122 35.8436C25.9919 36.3291 25.6604 36.7839 25.1748 36.8636Z" fill="#692880"/>
<path d="M28.5412 36.5229C28.0556 36.6008 27.599 36.2692 27.5211 35.7837C27.4432 35.2963 27.7748 34.8397 28.2603 34.7618C28.7459 34.6839 29.2025 35.0155 29.2804 35.4992C29.3583 35.9866 29.0267 36.4431 28.5412 36.5229Z" fill="#692880"/>
<path d="M31.7121 35.0085C31.2265 35.0864 30.7681 34.7548 30.692 34.2711C30.6141 33.7856 30.9457 33.3272 31.4312 33.2511C31.9168 33.1732 32.3734 33.5047 32.4513 33.9885C32.5292 34.474 32.1976 34.9306 31.7121 35.0085Z" fill="#97227E"/>
<path d="M34.124 32.5209C33.6385 32.5988 33.1819 32.2673 33.1022 31.7817C33.0243 31.2962 33.3558 30.8378 33.8414 30.7599C34.327 30.682 34.7835 31.0135 34.8614 31.4991C34.943 31.9864 34.6114 32.443 34.124 32.5209Z" fill="#692880"/>
<path d="M33.8754 30.5299C33.4315 30.5208 33.08 30.1567 33.089 29.7128C33.0963 29.2707 33.4623 28.9174 33.9044 28.9247C34.3464 28.9337 34.6997 29.2997 34.6925 29.7418C34.6834 30.1838 34.3174 30.5371 33.8754 30.5299Z" fill="#692880"/>
<path d="M34.6556 27.4863C34.2136 27.4791 33.8603 27.1131 33.8693 26.671C33.8766 26.229 34.2425 25.8757 34.6846 25.8829C35.1267 25.8902 35.48 26.2561 35.471 26.6982C35.4637 27.1421 35.0977 27.4954 34.6556 27.4863Z" fill="#692880"/>
<path d="M34.3537 24.3608C33.9098 24.3536 33.5583 23.9876 33.5655 23.5455C33.5728 23.1035 33.9388 22.7502 34.3809 22.7574C34.8229 22.7647 35.1762 23.1325 35.169 23.5727C35.1599 24.0166 34.7958 24.3699 34.3537 24.3608Z" fill="#692880"/>
<path d="M32.9984 21.529C32.5563 21.5218 32.203 21.1558 32.2121 20.7137C32.2211 20.2716 32.5853 19.9184 33.0292 19.9274C33.4713 19.9347 33.8246 20.3006 33.8174 20.7427C33.8065 21.1848 33.4423 21.5363 32.9984 21.529Z" fill="#97227E"/>
<path d="M30.7552 19.333C30.3132 19.3258 29.9599 18.9598 29.9689 18.5177C29.9762 18.0756 30.3422 17.7224 30.7842 17.7296C31.2263 17.7368 31.5796 18.1028 31.5724 18.5449C31.5633 18.9888 31.1973 19.3421 30.7552 19.333Z" fill="#692880"/>
<path d="M27.8978 18.0451C27.4557 18.0379 27.1024 17.6719 27.1115 17.2298C27.1187 16.7878 27.4847 16.4345 27.9268 16.4435C28.3689 16.4508 28.7222 16.8168 28.715 17.2588C28.7059 17.7009 28.3399 18.0542 27.8978 18.0451Z" fill="#692880"/>
<path d="M24.765 17.8151C24.3229 17.8079 23.9696 17.4419 23.9787 16.9998C23.9859 16.5578 24.3519 16.2045 24.794 16.2135C25.2361 16.2208 25.5894 16.5868 25.5803 17.0288C25.5749 17.4691 25.2089 17.8224 24.765 17.8151Z" fill="#692880"/>
<path d="M21.7433 18.6702C21.2994 18.6629 20.9479 18.2969 20.9552 17.8549C20.9624 17.411 21.3284 17.0595 21.7705 17.0668C22.2126 17.074 22.5659 17.44 22.5568 17.882C22.5496 18.3259 22.1854 18.6774 21.7433 18.6702Z" fill="#692880"/>
<path d="M19.1967 20.5001C18.7546 20.4928 18.4013 20.1268 18.4103 19.683C18.4176 19.2409 18.7836 18.8876 19.2256 18.8967C19.6677 18.9039 20.021 19.2699 20.0138 19.7119C20.0047 20.1558 19.6387 20.5073 19.1967 20.5001Z" fill="#C3E4F7"/>
<path d="M17.4347 23.0928C16.9927 23.0855 16.6393 22.7195 16.6466 22.2775C16.6538 21.8354 17.0198 21.4821 17.4619 21.4894C17.904 21.4966 18.2573 21.8626 18.25 22.3047C18.2428 22.7503 17.8768 23.1018 17.4347 23.0928Z" fill="#1F8CCA"/>
<path d="M16.6613 26.1435C16.2192 26.1363 15.8659 25.7703 15.8732 25.3283C15.8804 24.8844 16.2464 24.5329 16.6903 24.5401C17.1324 24.5474 17.4857 24.9134 17.4766 25.3554C17.4694 25.7993 17.1034 26.1526 16.6613 26.1435Z" fill="#1F8CCA"/>
<path d="M16.9896 29.2615C16.5475 29.2542 16.1942 28.8882 16.2033 28.4462C16.2105 28.0041 16.5765 27.6508 17.0186 27.6581C17.4607 27.6653 17.814 28.0313 17.8067 28.4734C17.7977 28.9172 17.4317 29.2687 16.9896 29.2615Z" fill="#1F8CCA"/>
<path d="M18.3586 32.0882C17.9165 32.0792 17.5632 31.715 17.5704 31.2711C17.5777 30.8291 17.9437 30.4758 18.3857 30.483C18.8296 30.4921 19.1811 30.8581 19.1739 31.3001C19.1666 31.7422 18.8006 32.0955 18.3586 32.0882Z" fill="#C3E4F7"/>
<path d="M20.6107 34.2656C20.1686 34.2583 19.8153 33.8924 19.8244 33.4503C19.8316 33.0082 20.1976 32.6549 20.6397 32.664C21.0818 32.6712 21.4351 33.0372 21.426 33.4793C21.4188 33.9213 21.0528 34.2746 20.6107 34.2656Z" fill="#1F8CCA"/>
<path d="M23.4757 35.5467C23.0319 35.5394 22.6804 35.1735 22.6876 34.7296C22.6949 34.2875 23.0608 33.9342 23.5029 33.9433C23.945 33.9505 24.2983 34.3165 24.2893 34.7604C24.2838 35.2006 23.9196 35.5539 23.4757 35.5467Z" fill="#1F8CCA"/>
<path d="M26.5119 35.7766C26.0698 35.7694 25.7165 35.4034 25.7237 34.9613C25.731 34.5174 26.097 34.166 26.5391 34.1732C26.9811 34.1805 27.3344 34.5464 27.3254 34.9885C27.32 35.4306 26.954 35.7839 26.5119 35.7766Z" fill="#692880"/>
<path d="M29.5599 34.936C29.1179 34.9288 28.7645 34.561 28.7736 34.1207C28.7809 33.6769 29.1468 33.3254 29.5889 33.3326C30.031 33.3399 30.3843 33.7059 30.3752 34.1479C30.368 34.5918 30.002 34.9451 29.5599 34.936Z" fill="#692880"/>
<path d="M32.089 33.1152C31.6469 33.108 31.2936 32.742 31.3009 32.2999C31.3099 31.8579 31.6741 31.5046 32.1162 31.5118C32.5583 31.5191 32.9116 31.8851 32.9043 32.3289C32.8989 32.7692 32.5329 33.1225 32.089 33.1152Z" fill="#97227E"/>
<path d="M32.0965 31.1766C31.7142 31.1024 31.4642 30.731 31.5385 30.3487C31.6127 29.9664 31.9823 29.7164 32.3665 29.7907C32.7506 29.8649 32.9988 30.2345 32.9263 30.6186C32.852 31.0009 32.4806 31.2509 32.0965 31.1766Z" fill="#97227E"/>
<path d="M33.2371 28.6564C32.8548 28.5821 32.6048 28.2107 32.6791 27.8284C32.7534 27.4461 33.123 27.1943 33.5071 27.2704C33.8894 27.3447 34.1394 27.7143 34.0651 28.0984C33.9908 28.4807 33.6194 28.7307 33.2371 28.6564Z" fill="#692880"/>
<path d="M33.4518 25.8991C33.0677 25.8248 32.8177 25.4552 32.892 25.0711C32.9663 24.6888 33.3359 24.4388 33.72 24.5131C34.1023 24.5873 34.3541 24.9569 34.2798 25.341C34.2037 25.7233 33.8341 25.9733 33.4518 25.8991Z" fill="#692880"/>
<path d="M32.7059 23.2356C32.3236 23.1613 32.0735 22.7899 32.1478 22.4076C32.2221 22.0235 32.5935 21.7735 32.9758 21.8478C33.3581 21.9221 33.6082 22.2935 33.5357 22.6758C33.4596 23.0598 33.09 23.3099 32.7059 23.2356Z" fill="#692880"/>
<path d="M31.096 20.9909C30.7137 20.9166 30.4619 20.5452 30.538 20.1629C30.6123 19.7806 30.9837 19.5306 31.366 19.6049C31.7483 19.6791 31.9983 20.0487 31.924 20.4328C31.8497 20.8151 31.4783 21.0651 31.096 20.9909Z" fill="#97227E"/>
<path d="M28.8138 19.4384C28.4315 19.3641 28.1797 18.9945 28.2558 18.6104C28.33 18.2281 28.6997 17.9763 29.0838 18.0506C29.4679 18.1249 29.7161 18.4945 29.6436 18.8786C29.5675 19.2627 29.1961 19.5127 28.8138 19.4384Z" fill="#692880"/>
<path d="M26.1315 18.7609C25.7474 18.6866 25.4974 18.3152 25.5717 17.9329C25.6459 17.5506 26.0156 17.3006 26.3997 17.3749C26.7819 17.4492 27.032 17.8206 26.9577 18.2029C26.8852 18.5851 26.5156 18.8352 26.1315 18.7609Z" fill="#692880"/>
<path d="M23.3797 19.0431C22.9974 18.9688 22.7474 18.5992 22.8217 18.2151C22.8959 17.8328 23.2656 17.5828 23.6497 17.6571C24.0338 17.7314 24.282 18.1028 24.2095 18.4851C24.1334 18.8674 23.762 19.1174 23.3797 19.0431Z" fill="#692880"/>
<path d="M20.8913 20.2426C20.5072 20.1683 20.2571 19.7969 20.3314 19.4146C20.4057 19.0323 20.7771 18.7823 21.1594 18.8566C21.5417 18.9309 21.7936 19.3004 21.7175 19.6845C21.645 20.065 21.2736 20.3168 20.8913 20.2426Z" fill="#692880"/>
<path d="M18.9674 22.2231C18.5851 22.1488 18.3332 21.7792 18.4075 21.3951C18.4818 21.0128 18.8532 20.761 19.2355 20.8353C19.6178 20.9095 19.8697 21.2791 19.7936 21.6632C19.7211 22.0491 19.3515 22.2992 18.9674 22.2231Z" fill="#C3E4F7"/>
<path d="M17.8333 24.7521C17.451 24.6778 17.1992 24.3082 17.2753 23.9241C17.3496 23.5418 17.7192 23.29 18.1033 23.3661C18.4856 23.4404 18.7356 23.8118 18.6613 24.1941C18.587 24.5764 18.2156 24.8264 17.8333 24.7521Z" fill="#1F8CCA"/>
<path d="M17.6414 27.5077C17.2591 27.4334 17.0091 27.062 17.0834 26.6798C17.1577 26.2975 17.5291 26.0475 17.9114 26.1199C18.2937 26.1942 18.5437 26.5656 18.4694 26.9479C18.3969 27.3302 18.0255 27.5802 17.6414 27.5077Z" fill="#1F8CCA"/>
<path d="M18.4007 30.1657C18.0184 30.0914 17.7666 29.7218 17.8427 29.3377C17.917 28.9554 18.2884 28.7054 18.6707 28.7797C19.053 28.8539 19.303 29.2254 19.2287 29.6076C19.1544 29.9899 18.783 30.2399 18.4007 30.1657Z" fill="#1F8CCA"/>
<path d="M20.0228 32.3974C19.6405 32.3232 19.3886 31.9536 19.4647 31.5695C19.539 31.1854 19.9104 30.9372 20.2927 31.0096C20.6768 31.0839 20.9251 31.4553 20.8508 31.8376C20.7765 32.2217 20.4051 32.4717 20.0228 32.3974Z" fill="#C3E4F7"/>
<path d="M22.3123 33.9452C21.93 33.8709 21.68 33.5013 21.7543 33.1172C21.8286 32.7349 22.2 32.4849 22.5823 32.5592C22.9646 32.6335 23.2146 33.0031 23.1403 33.3872C23.066 33.7695 22.6964 34.0195 22.3123 33.9452Z" fill="#1F8CCA"/>
<path d="M24.9128 34.6062C24.5287 34.5319 24.2786 34.1623 24.3529 33.7782C24.4272 33.3941 24.7986 33.1441 25.1809 33.2184C25.5632 33.2927 25.8132 33.6641 25.7389 34.0464C25.6647 34.4304 25.295 34.6805 24.9128 34.6062Z" fill="#1F8CCA"/>
<path d="M27.6822 34.3419C27.2999 34.2676 27.0481 33.898 27.1224 33.514C27.1967 33.1317 27.5663 32.8817 27.9504 32.9559C28.3327 33.0302 28.5827 33.3998 28.5084 33.7839C28.4359 34.1662 28.0645 34.4162 27.6822 34.3419Z" fill="#692880"/>
<path d="M30.1559 33.1479C29.7718 33.0736 29.5218 32.7022 29.5961 32.3199C29.6704 31.9376 30.0418 31.6876 30.4241 31.7601C30.8064 31.8343 31.0564 32.2057 30.9839 32.588C30.9078 32.9703 30.5382 33.2221 30.1559 33.1479Z" fill="#692880"/>
<path d="M80.1569 26.9262C80.1814 27.1734 80.1965 27.4097 80.1965 27.6331C80.1965 27.8565 80.1965 28.0671 80.1965 28.2649V31.6546C80.1211 33.343 80.0044 34.7146 79.8519 35.7695C79.6974 36.8261 79.4376 37.652 79.0666 38.2472C78.6956 38.8442 78.1721 39.2471 77.4961 39.4577C76.8182 39.6683 75.9312 39.7745 74.8334 39.7745H65.4875C62.322 39.7745 60.7383 38.0366 60.7383 34.559V32.6966C60.7383 31.5538 60.8475 30.6052 61.0641 29.8471C61.2806 29.0908 61.6629 28.4993 62.2128 28.0781C62.7607 27.6569 63.5083 27.3584 64.4537 27.1844C65.3971 27.0104 66.5853 26.9244 68.0165 26.9244H77.1703L77.1326 26.4391C77.0554 25.1718 76.7617 24.2415 76.2514 23.6464C76.225 23.6464 76.1873 23.6226 76.1365 23.5713C75.5489 22.9999 74.7957 22.7143 73.8767 22.7143H67.6342C65.414 22.7143 64.303 23.6702 64.303 25.582C64.303 25.8311 64.2013 25.9556 63.9979 25.9556H61.7759C61.5461 25.9556 61.4313 25.8311 61.4313 25.582V25.1352C61.4313 23.2728 62.0452 21.8462 63.2711 20.8518C63.7814 20.4306 64.3877 20.1193 65.0901 19.9215C65.7925 19.7238 66.5138 19.623 67.2538 19.623H74.1103C76.0254 19.6487 77.5187 20.1944 78.5921 21.262C79.6654 22.3297 80.2002 24.0547 80.2002 26.4391L80.1569 26.9262ZM77.1891 31.3762C77.2023 30.8689 77.208 30.5009 77.208 30.2774H66.2916C65.3726 30.2774 64.7606 30.402 64.4537 30.6492C63.7889 30.9239 63.4575 31.6179 63.4575 32.735V34.2257C63.4575 35.8885 64.4009 36.7217 66.2916 36.7217H74.1442C76.1082 36.7217 77.0931 35.6303 77.0931 33.4437C77.1439 32.5739 77.176 31.8853 77.1891 31.3762Z" fill="#692880"/>
<path d="M81.5752 27.4096C81.5752 24.8018 82.1627 22.8094 83.3378 21.4304C84.5129 20.0533 86.1078 19.3629 88.1247 19.3629H93.9096C95.6703 19.3629 96.9979 19.861 97.8924 20.8517V11.84C97.8924 11.6166 97.9809 11.5049 98.1598 11.5049H100.342C100.572 11.5049 100.687 11.6166 100.687 11.84V33.0334C100.61 33.6799 100.516 34.2311 100.401 34.6907C100.286 35.1504 100.163 35.5606 100.037 35.9195C99.9092 36.2803 99.7623 36.5971 99.5966 36.87C99.4309 37.1428 99.2331 37.4029 99.0034 37.6519C98.4422 38.4467 97.6946 38.9979 96.7625 39.3092C95.8303 39.6205 94.8794 39.7744 93.9096 39.7744H88.1247C83.7596 39.7744 81.5752 37.1044 81.5752 31.7662V27.4096ZM84.3321 31.768C84.3321 33.6542 84.7652 34.9599 85.6352 35.6796C86.298 36.3737 87.3959 36.7216 88.9287 36.7216H93.6779C94.3408 36.7216 94.9039 36.6227 95.3633 36.4231C95.8228 36.2235 96.2578 35.9269 96.6664 35.5295C97.5082 34.7091 97.93 33.4565 97.93 31.768V27.4096C97.93 25.7944 97.5082 24.5784 96.6664 23.758C96.2578 23.3606 95.8096 23.0511 95.3257 22.8277C94.8398 22.6043 94.2918 22.4926 93.6779 22.4926H88.9287C85.8649 22.4926 84.3321 24.1316 84.3321 27.4096V31.768Z" fill="#692880"/>
<path d="M102.103 27.4096C102.103 24.8018 102.69 22.8094 103.865 21.4304C105.04 20.0533 106.635 19.3629 108.652 19.3629H114.437C116.198 19.3629 117.525 19.861 118.42 20.8517V11.84C118.42 11.6166 118.51 11.5049 118.687 11.5049H120.87C121.099 11.5049 121.214 11.6166 121.214 11.84V33.0334C121.139 33.6799 121.043 34.2311 120.928 34.6907C120.813 35.1504 120.693 35.5606 120.565 35.9195C120.437 36.2803 120.29 36.5971 120.124 36.87C119.958 37.1428 119.76 37.4029 119.531 37.6519C118.97 38.4467 118.222 38.9979 117.29 39.3092C116.358 39.6205 115.407 39.7744 114.437 39.7744H108.652C104.287 39.7744 102.103 37.1044 102.103 31.7662V27.4096ZM104.861 31.768C104.861 33.6542 105.294 34.9599 106.164 35.6796C106.827 36.3737 107.925 36.7216 109.458 36.7216H114.207C114.872 36.7216 115.433 36.6227 115.893 36.4231C116.352 36.2235 116.787 35.9269 117.196 35.5295C118.039 34.7091 118.459 33.4565 118.459 31.768V27.4096C118.459 25.7944 118.037 24.5784 117.196 23.758C116.787 23.3606 116.339 23.0511 115.855 22.8277C115.369 22.6043 114.819 22.4926 114.207 22.4926H109.458C106.394 22.4926 104.861 24.1316 104.861 27.4096V31.768Z" fill="#692880"/>
<path d="M133.626 39.8256H127.882C126.91 39.8256 125.967 39.67 125.048 39.3605C124.129 39.051 123.363 38.498 122.751 37.7032C122.545 37.456 122.353 37.1941 122.176 36.9212C121.997 36.6465 121.845 36.3316 121.717 35.9708C121.589 35.61 121.474 35.2017 121.37 34.742C121.269 34.2842 121.191 33.7311 121.141 33.0865V11.8913C121.141 11.6679 121.231 11.5562 121.41 11.5562H123.555C123.809 11.5562 123.939 11.6679 123.939 11.8913V20.9048C124.346 20.4342 124.882 20.0661 125.547 19.8061C126.21 19.546 126.99 19.4142 127.884 19.4142H133.629C135.646 19.4142 137.249 20.1046 138.435 21.4817C139.623 22.8607 140.217 24.8513 140.217 27.459V31.8156C140.215 37.1575 138.017 39.8256 133.626 39.8256ZM137.381 27.4608C137.381 24.1828 135.861 22.5438 132.822 22.5438H128.072C127.485 22.5438 126.937 22.6556 126.425 22.879C125.914 23.1024 125.481 23.4137 125.123 23.8111C124.69 24.2085 124.376 24.7157 124.186 25.3384C123.994 25.9592 123.898 26.6661 123.898 27.4608V31.8175C123.898 32.6379 123.994 33.3704 124.186 34.015C124.378 34.6614 124.69 35.1833 125.123 35.5789C125.837 36.3737 126.822 36.7711 128.072 36.7711H132.822C133.562 36.7711 134.213 36.685 134.774 36.511C135.336 36.3371 135.784 36.077 136.115 35.7291C136.959 34.9837 137.379 33.6799 137.379 31.8175V27.4608H137.381Z" fill="#1F8CCA"/>
<path d="M141.943 39.8293C141.713 39.8293 141.599 39.7176 141.599 39.4942V11.8949C141.599 11.6715 141.713 11.5598 141.943 11.5598H144.152C144.331 11.5598 144.42 11.6715 144.42 11.8949V39.4942C144.42 39.7176 144.329 39.8293 144.152 39.8293H141.943Z" fill="#1F8CCA"/>
<path d="M163.519 37.8332C162.332 39.1627 160.69 39.8275 158.598 39.8275H152.7C148.181 39.8275 145.921 37.1831 145.921 31.8943V27.6091C145.921 24.9538 146.508 22.9412 147.683 21.5751C148.322 20.9543 149.049 20.4763 149.866 20.1412C150.683 19.8061 151.629 19.6394 152.7 19.6394H158.598C160.668 19.6394 162.3 20.2968 163.5 21.6135C164.138 22.3076 164.598 23.1536 164.878 24.1462C165.159 25.1406 165.3 26.2943 165.3 27.6091V31.8943C165.3 34.5241 164.707 36.5055 163.519 37.8332ZM162.543 27.5725C162.543 24.3202 161.165 22.6922 158.406 22.6922H152.93C150.173 22.6922 148.793 24.3311 148.793 27.6073V31.8925C148.793 35.1687 150.171 36.8077 152.93 36.8077H158.406C161.163 36.8077 162.543 35.1687 162.543 31.8925V27.5725Z" fill="#1F8CCA"/>
<path d="M184.334 37.8515C183.146 39.181 181.506 39.8439 179.411 39.8439H173.514C168.994 39.8439 166.734 37.1996 166.734 31.9108V27.6275C166.734 24.9703 167.322 22.9595 168.497 21.5934C169.135 20.9726 169.864 20.4946 170.679 20.1595C171.497 19.8244 172.442 19.6577 173.514 19.6577H179.411C181.481 19.6577 183.114 20.3151 184.313 21.6318C184.952 22.3259 185.411 23.1719 185.692 24.1645C185.972 25.1571 186.113 26.3126 186.113 27.6293V31.9127C186.113 34.5424 185.52 36.5238 184.334 37.8515ZM183.357 27.5908C183.357 24.3385 181.976 22.7105 179.219 22.7105H173.743C170.986 22.7105 169.606 24.3495 169.606 27.6275V31.9108C169.606 35.1888 170.985 36.8278 173.743 36.8278H179.219C181.976 36.8278 183.357 35.1906 183.357 31.9108V27.5908Z" fill="#1F8CCA"/>
<path d="M217.527 23.7102C217.213 22.7928 216.772 21.9852 216.207 21.2893C215.096 20.0971 213.797 19.502 212.309 19.502H211.897H207.75H207.338C206.73 19.502 206.185 19.5642 205.703 19.6887C205.221 19.8133 204.792 20.0367 204.413 20.359C203.82 20.7436 203.34 21.3882 202.963 22.2672C202.792 21.9504 202.615 21.6482 202.421 21.3845C202.137 20.9981 201.818 20.6703 201.463 20.3974C201.419 20.3974 201.399 20.3846 201.399 20.359C201.022 20.0367 200.593 19.8133 200.11 19.6887C199.628 19.5642 199.073 19.502 198.444 19.502H198.032H194.262H193.849C192.908 19.502 192.053 19.7126 191.288 20.1356C190.522 20.5586 189.874 21.1428 189.339 21.8863C188.804 22.6316 188.396 23.507 188.113 24.5123C187.831 25.5177 187.689 26.6165 187.689 27.8086V39.3182C187.689 39.5179 187.753 39.6167 187.878 39.6167H188.29H189.953H190.365C190.533 39.6167 190.616 39.5179 190.616 39.3182C190.616 38.9465 190.605 38.4191 190.584 37.7342C190.563 37.0511 190.531 36.2252 190.49 35.2583C190.446 34.3152 190.42 33.4765 190.411 32.744C190.399 32.0114 190.394 31.3961 190.394 30.8998C190.394 29.585 190.452 28.4496 190.567 27.4918C190.682 26.5359 190.887 25.699 191.181 24.9775C191.475 24.1589 191.904 23.5619 192.471 23.1902C193.036 22.8184 193.717 22.6316 194.514 22.6316H197.811C197.979 22.6316 198.178 22.6573 198.408 22.7067C198.638 22.7561 198.901 22.8422 199.193 22.9667C199.739 23.1902 200.316 23.7743 200.922 24.7174C201.237 25.2156 201.419 25.7851 201.472 26.4315C201.525 27.078 201.551 27.8965 201.551 28.8909V39.3201C201.551 39.5197 201.645 39.6186 201.833 39.6186H202.246H203.594H204.007C204.195 39.6186 204.291 39.5197 204.291 39.3201C204.27 39.1205 204.261 38.3019 204.261 36.8625C204.261 35.4231 204.261 33.3355 204.261 30.605C204.261 29.1894 204.282 28.0229 204.323 27.1036C204.364 26.1861 204.511 25.428 204.764 24.8328C205.434 23.3678 206.607 22.6353 208.285 22.6353H211.488C212.243 22.6353 212.893 22.8147 213.437 23.1755C213.983 23.5363 214.401 24.1003 214.695 24.8694C215.26 26.1861 215.544 28.1346 215.544 30.7186C215.544 31.191 215.529 31.7862 215.497 32.5059C215.467 33.2256 215.43 34.0826 215.388 35.0752C215.326 36.0934 215.283 36.9559 215.262 37.6646C215.241 38.3715 215.23 38.9245 215.23 39.3219C215.23 39.5215 215.324 39.6204 215.512 39.6204H215.925H217.337H217.75C217.917 39.6204 218 39.5215 218 39.3219V26.7703C217.998 25.6477 217.842 24.6295 217.527 23.7102Z" fill="#1F8CCA"/>
</svg>
